<svg xmlns="http://www.w3.org/2000/svg" width="147" height="263" viewBox="0 0 147 263"><g><g><path fill="#bc994f" d="M134.648 24.61c-6.822-.02-12.354-5.439-12.354-12.102S127.826.463 134.648.487c6.82.023 12.35 5.441 12.35 12.102 0 6.66-5.53 12.043-12.35 12.022zm0 59.598c-6.822-.016-12.354-5.43-12.354-12.093 0-6.662 5.532-12.049 12.354-12.031 6.82.018 12.35 5.432 12.35 12.093 0 6.66-5.53 12.047-12.35 12.031zm0 59.598c-6.822-.011-12.354-5.42-12.354-12.084 0-6.662 5.532-12.053 12.354-12.04 6.82.012 12.35 5.422 12.35 12.083 0 6.66-5.53 12.051-12.35 12.04zm0 59.597c-6.822-.005-12.354-5.41-12.354-12.073s5.532-12.059 12.354-12.051c6.82.007 12.35 5.413 12.35 12.074 0 6.66-5.53 12.055-12.35 12.05zm0 59.598c-6.822 0-12.354-5.402-12.354-12.065 0-6.662 5.532-12.062 12.354-12.06 6.82.002 12.35 5.404 12.35 12.064 0 6.661-5.53 12.06-12.35 12.06zM73.572 24.42C66.74 24.4 61.2 18.977 61.2 12.309S66.74.254 73.572.278c6.832.023 12.37 5.446 12.37 12.112s-5.538 12.052-12.37 12.031zm0 59.645C66.74 84.05 61.2 78.632 61.2 71.963c0-6.668 5.54-12.058 12.373-12.04 6.832.018 12.37 5.436 12.37 12.102s-5.538 12.057-12.37 12.041zm0 59.645c-6.833-.01-12.373-5.425-12.373-12.093s5.54-12.063 12.373-12.05c6.832.012 12.37 5.426 12.37 12.092s-5.538 12.061-12.37 12.05zm0 59.645C66.74 203.35 61.2 197.94 61.2 191.272c0-6.668 5.54-12.067 12.373-12.06 6.832.008 12.37 5.418 12.37 12.084 0 6.666-5.538 12.065-12.37 12.06zm0 59.645c-6.833 0-12.373-5.406-12.373-12.074s5.54-12.072 12.373-12.07c6.832.002 12.37 5.408 12.37 12.074 0 6.666-5.538 12.07-12.37 12.07zM12.4 24.23C5.556 24.21.007 18.783.007 12.109.007 5.436 5.556.045 12.4.07c6.842.023 12.388 5.45 12.388 12.121S19.242 24.252 12.4 24.231zm0 59.693C5.556 83.908.007 78.484.007 71.81c0-6.673 5.549-12.068 12.393-12.05 6.842.018 12.388 5.44 12.388 12.112 0 6.671-5.546 12.066-12.388 12.05zm0 59.692c-6.844-.011-12.393-5.43-12.393-12.103s5.549-12.073 12.393-12.06c6.842.013 12.388 5.431 12.388 12.103 0 6.67-5.546 12.07-12.388 12.06zm0 59.692c-6.844-.005-12.393-5.42-12.393-12.093s5.549-12.077 12.393-12.07c6.842.008 12.388 5.422 12.388 12.093 0 6.672-5.546 12.075-12.388 12.07zm0 59.693C5.556 263 .007 257.59.007 250.917c0-6.673 5.549-12.081 12.393-12.08 6.842.003 12.388 5.413 12.388 12.084 0 6.671-5.546 12.08-12.388 12.08z"/></g></g></svg>