<svg xmlns="http://www.w3.org/2000/svg" width="442" height="147" viewBox="0 0 442 147"><g><g><path fill="#bc994f" d="M24.818 12.352c-.037 6.822-5.468 12.354-12.13 12.354-6.663 0-12.033-5.532-11.994-12.354.04-6.82 5.47-12.35 12.131-12.35 6.661 0 12.03 5.53 11.993 12.35zm59.598 0c-.032 6.822-5.459 12.354-12.122 12.354-6.662 0-12.036-5.532-12.002-12.354.034-6.82 5.46-12.35 12.121-12.35 6.661 0 12.035 5.53 12.003 12.35zm59.597 0c-.026 6.822-5.449 12.354-12.112 12.354-6.662 0-12.04-5.532-12.012-12.354.029-6.82 5.451-12.35 12.112-12.35 6.66 0 12.039 5.53 12.012 12.35zm59.598 0c-.021 6.822-5.44 12.354-12.103 12.354-6.662 0-12.045-5.532-12.021-12.354.023-6.82 5.441-12.35 12.102-12.35 6.66 0 12.043 5.53 12.022 12.35zm59.597 0c-.016 6.822-5.43 12.354-12.093 12.354-6.662 0-12.05-5.532-12.03-12.354.017-6.82 5.431-12.35 12.092-12.35 6.66 0 12.047 5.53 12.031 12.35zm59.598 0c-.011 6.822-5.42 12.354-12.084 12.354-6.662 0-12.053-5.532-12.04-12.354.012-6.82 5.422-12.35 12.083-12.35 6.66 0 12.051 5.53 12.04 12.35zm59.597 0c-.005 6.822-5.41 12.354-12.073 12.354s-12.059-5.532-12.051-12.354c.007-6.82 5.413-12.35 12.074-12.35 6.66 0 12.055 5.53 12.05 12.35zm59.598 0c0 6.822-5.402 12.354-12.065 12.354-6.662 0-12.062-5.532-12.06-12.354.002-6.82 5.404-12.35 12.064-12.35S442 5.533 442 12.353zM24.486 73.428C24.45 80.26 19.014 85.8 12.346 85.8S.304 80.26.343 73.428c.04-6.832 5.475-12.37 12.141-12.37s12.04 5.538 12.002 12.37zm59.645 0C84.1 80.26 78.668 85.8 72.001 85.8c-6.669 0-12.047-5.54-12.013-12.373.034-6.832 5.465-12.37 12.131-12.37s12.044 5.538 12.012 12.37zm59.645 0c-.026 6.833-5.454 12.373-12.122 12.373-6.667 0-12.05-5.54-12.021-12.373.028-6.832 5.456-12.37 12.121-12.37 6.666 0 12.049 5.538 12.022 12.37zm59.645 0C203.4 80.26 197.977 85.8 191.309 85.8s-12.055-5.54-12.031-12.373c.023-6.832 5.446-12.37 12.112-12.37s12.052 5.538 12.031 12.37zm59.645 0c-.016 6.833-5.434 12.373-12.103 12.373-6.668 0-12.059-5.54-12.04-12.373.018-6.832 5.436-12.37 12.102-12.37s12.057 5.538 12.04 12.37zm59.645 0c-.01 6.833-5.425 12.373-12.093 12.373s-12.064-5.54-12.05-12.373c.012-6.832 5.426-12.37 12.092-12.37s12.061 5.538 12.05 12.37zm59.645 0C382.35 80.26 376.94 85.8 370.273 85.8c-6.669 0-12.068-5.54-12.06-12.373.007-6.832 5.417-12.37 12.083-12.37s12.065 5.538 12.06 12.37zm59.645 0c0 6.833-5.406 12.373-12.074 12.373s-12.072-5.54-12.07-12.373c.002-6.832 5.408-12.37 12.074-12.37 6.666 0 12.07 5.538 12.07 12.37zM24.154 134.6c-.037 6.844-5.477 12.393-12.15 12.393-6.674 0-12.052-5.549-12.013-12.393.04-6.842 5.48-12.388 12.15-12.388 6.672 0 12.05 5.546 12.013 12.388zm59.692 0c-.032 6.844-5.467 12.393-12.14 12.393-6.674 0-12.056-5.549-12.022-12.393.034-6.842 5.47-12.388 12.14-12.388 6.672 0 12.054 5.546 12.022 12.388zm59.693 0c-.027 6.844-5.458 12.393-12.132 12.393-6.673 0-12.06-5.549-12.03-12.393.028-6.842 5.46-12.388 12.13-12.388 6.672 0 12.058 5.546 12.032 12.388zm59.692 0c-.021 6.844-5.448 12.393-12.122 12.393-6.673 0-12.064-5.549-12.04-12.393.023-6.842 5.45-12.388 12.121-12.388s12.062 5.546 12.041 12.388zm59.692 0c-.015 6.844-5.438 12.393-12.112 12.393-6.673 0-12.068-5.549-12.05-12.393.018-6.842 5.44-12.388 12.112-12.388 6.671 0 12.066 5.546 12.05 12.388zm59.693 0c-.01 6.844-5.43 12.393-12.103 12.393s-12.073-5.549-12.06-12.393c.013-6.842 5.431-12.388 12.103-12.388 6.671 0 12.07 5.546 12.06 12.388zm59.692 0c-.005 6.844-5.42 12.393-12.093 12.393s-12.077-5.549-12.07-12.393c.008-6.842 5.422-12.388 12.093-12.388 6.672 0 12.075 5.546 12.07 12.388zm59.693 0c0 6.844-5.41 12.393-12.084 12.393-6.673 0-12.081-5.549-12.08-12.393.003-6.842 5.413-12.388 12.084-12.388 6.671 0 12.08 5.546 12.08 12.388z"/></g></g></svg>